<svg version="1.1" viewBox="0.0 0.0 96.0 96.0" fill="none" stroke="none" stroke-linecap="square" stroke-miterlimit="10" xmlns:xlink="http://www.w3.org/1999/xlink" xmlns="http://www.w3.org/2000/svg"><clipPath id="p.0"><path d="m0 0l96.0 0l0 96.0l-96.0 0l0 -96.0z" clip-rule="nonzero"/></clipPath><g clip-path="url(#p.0)"><path fill="#000000" fill-opacity="0.0" d="m0 0l96.0 0l0 96.0l-96.0 0z" fill-rule="evenodd"/><path fill="#dd7e6b" d="m0 79.486404l12.875934 16.516785l38.245743 -1.1303787l26.008472 -7.0569687l11.091095 -7.4832306l7.778023 -13.4129715l-2.5518036 -17.08197l-5.0979156 -7.0601273l-9.562859 -6.494938l-10.580734 -8.610449l-7.1393585 -15.673732l-7.903473 -10.871204l-11.2193985 -1.1272205l-16.699368 12.1405115l-12.878786 15.105385l-4.462098 14.966457l-6.628996 29.790829z" fill-rule="evenodd"/><path stroke="#cc4125" stroke-width="1.0" stroke-linejoin="round" stroke-linecap="butt" d="m0 79.486404l12.875934 16.516785l38.245743 -1.1303787l26.008472 -7.0569687l11.091095 -7.4832306l7.778023 -13.4129715l-2.5518036 -17.08197l-5.0979156 -7.0601273l-9.562859 -6.494938l-10.580734 -8.610449l-7.1393585 -15.673732l-7.903473 -10.871204l-11.2193985 -1.1272205l-16.699368 12.1405115l-12.878786 15.105385l-4.462098 14.966457l-6.628996 29.790829z" fill-rule="evenodd"/><path fill="#b6d7a8" d="m63.74276 1.2692845l6.2469406 19.765825l3.8262787 -0.7072754l0.6358185 3.6721497l11.729759 12.424686l-10.455284 -5.364559l13.004242 14.117092l-18.740814 -6.352848l-2.5489578 -9.036709l-11.473152 -2.9648743l9.306252 -2.6807003l-13.260841 -7.6253166l11.986366 1.1303787l-8.416687 -12.2825985l8.031776 5.364559z" fill-rule="evenodd"/><path stroke="#93c47d" stroke-width="1.0" stroke-linejoin="round" stroke-linecap="butt" d="m63.74276 1.2692845l6.2469406 19.765825l3.8262787 -0.7072754l0.6358185 3.6721497l11.729759 12.424686l-10.455284 -5.364559l13.004242 14.117092l-18.740814 -6.352848l-2.5489578 -9.036709l-11.473152 -2.9648743l9.306252 -2.6807003l-13.260841 -7.6253166l11.986366 1.1303787l-8.416687 -12.2825985l8.031776 5.364559z" fill-rule="evenodd"/><path fill="#999999" d="m32.285946 82.56656l5.678398 0.21286774l-3.0100632 -3.4571838l-4.6169167 1.2064362z" fill-rule="evenodd"/><path stroke="#666666" stroke-width="1.0" stroke-linejoin="round" stroke-linecap="butt" d="m32.285946 82.56656l5.678398 0.21286774l-3.0100632 -3.4571838l-4.6169167 1.2064362z" fill-rule="evenodd"/><path fill="#999999" d="m55.545677 83.40195l-4.9707413 -3.0477982l1.26231 4.594536l4.6077385 1.2492905z" fill-rule="evenodd"/><path stroke="#666666" stroke-width="1.0" stroke-linejoin="round" stroke-linecap="butt" d="m55.545677 83.40195l-4.9707413 -3.0477982l1.26231 4.594536l4.6077385 1.2492905z" fill-rule="evenodd"/><path fill="#999999" d="m76.54123 71.25157l-5.598465 1.0709763l3.5817413 2.706665l4.2986374 -2.221428z" fill-rule="evenodd"/><path stroke="#666666" stroke-width="1.0" stroke-linejoin="round" stroke-linecap="butt" d="m76.54123 71.25157l-5.598465 1.0709763l3.5817413 2.706665l4.2986374 -2.221428z" fill-rule="evenodd"/><path fill="#999999" d="m59.190628 70.002144l-5.350048 -2.1192245l1.9158211 4.3087006l4.729515 0.40916443z" fill-rule="evenodd"/><path stroke="#666666" stroke-width="1.0" stroke-linejoin="round" stroke-linecap="butt" d="m59.190628 70.002144l-5.350048 -2.1192245l1.9158211 4.3087006l4.729515 0.40916443z" fill-rule="evenodd"/><path fill="#999999" d="m27.531591 33.196957l-3.3641949 4.296818l3.5138702 0.0870285l2.0214844 -4.4690247z" fill-rule="evenodd"/><path stroke="#666666" stroke-width="1.0" stroke-linejoin="round" stroke-linecap="butt" d="m27.531591 33.196957l-3.3641949 4.296818l3.5138702 0.0870285l2.0214844 -4.4690247z" fill-rule="evenodd"/><path fill="#999999" d="m13.769271 50.820072l4.426177 -1.7366104l-3.1010828 -2.2607384l-3.287427 2.724228z" fill-rule="evenodd"/><path stroke="#666666" stroke-width="1.0" stroke-linejoin="round" stroke-linecap="butt" d="m13.769271 50.820072l4.426177 -1.7366104l-3.1010828 -2.2607384l-3.287427 2.724228z" fill-rule="evenodd"/><path fill="#999999" d="m8.024241 75.85253l2.6547537 -5.141281l-3.4535885 0.89064026l-1.314403 4.937004z" fill-rule="evenodd"/><path stroke="#666666" stroke-width="1.0" stroke-linejoin="round" stroke-linecap="butt" d="m8.024241 75.85253l2.6547537 -5.141281l-3.4535885 0.89064026l-1.314403 4.937004z" fill-rule="evenodd"/><path fill="#999999" d="m26.253275 69.12376l4.162241 -2.6914139l-3.3274364 -1.5461502l-2.921751 3.4145584z" fill-rule="evenodd"/><path stroke="#666666" stroke-width="1.0" stroke-linejoin="round" stroke-linecap="butt" d="m26.253275 69.12376l4.162241 -2.6914139l-3.3274364 -1.5461502l-2.921751 3.4145584z" fill-rule="evenodd"/><path fill="#999999" d="m47.814663 4.0523314l-2.6944618 5.003037l4.2599983 -0.70500946l1.0227356 -4.8709407z" fill-rule="evenodd"/><path stroke="#666666" stroke-width="1.0" stroke-linejoin="round" stroke-linecap="butt" d="m47.814663 4.0523314l-2.6944618 5.003037l4.2599983 -0.70500946l1.0227356 -4.8709407z" fill-rule="evenodd"/><path fill="#999999" d="m36.809372 24.565496l4.78228 -2.7143059l-4.4500237 -1.5349712l-3.098404 3.4335709z" fill-rule="evenodd"/><path stroke="#666666" stroke-width="1.0" stroke-linejoin="round" stroke-linecap="butt" d="m36.809372 24.565496l4.78228 -2.7143059l-4.4500237 -1.5349712l-3.098404 3.4335709z" fill-rule="evenodd"/><path fill="#999999" d="m45.441483 56.568203l1.5731049 -5.678608l-3.8787498 1.658329l-0.023067474 5.1747093z" fill-rule="evenodd"/><path stroke="#666666" stroke-width="1.0" stroke-linejoin="round" stroke-linecap="butt" d="m45.441483 56.568203l1.5731049 -5.678608l-3.8787498 1.658329l-0.023067474 5.1747093z" fill-rule="evenodd"/><path fill="#999999" d="m46.54494 35.65756l4.163681 -3.596798l-4.4971313 -0.7780647l-2.4407463 4.0318413z" fill-rule="evenodd"/><path stroke="#666666" stroke-width="1.0" stroke-linejoin="round" stroke-linecap="butt" d="m46.54494 35.65756l4.163681 -3.596798l-4.4971313 -0.7780647l-2.4407463 4.0318413z" fill-rule="evenodd"/></g></svg>